<?xml version="1.0" standalone="no"?>
<!DOCTYPE svg PUBLIC "-//W3C//DTD SVG 20010904//EN"
 "http://www.w3.org/TR/2001/REC-SVG-20010904/DTD/svg10.dtd">
<svg version="1.0" xmlns="http://www.w3.org/2000/svg"
 width="165.000000pt" height="165.000000pt" viewBox="0 0 165.000000 165.000000"
 preserveAspectRatio="xMidYMid meet">
<metadata>
Created by potrace 1.14, written by Peter Selinger 2001-2017
</metadata>
<g transform="translate(0.000000,165.000000) scale(0.100000,-0.100000)"
fill="#000000" stroke="none">
<path d="M669 1624 c-143 -27 -294 -106 -414 -219 -36 -33 -124 -153 -149
-203 -110 -220 -118 -480 -21 -699 34 -76 107 -183 163 -239 124 -123 262
-197 437 -233 51 -10 245 -8 300 3 373 79 645 408 647 786 1 139 -20 237 -77
357 -156 331 -522 516 -886 447z"/>
</g>
</svg>
